<svg xmlns="http://www.w3.org/2000/svg" width="1200" height="750" viewBox="0 0 1200 750">
  <defs>
    <linearGradient id="bg" x1="0" y1="0" x2="1" y2="1">
      <stop offset="0" stop-color="#FFFFFF"/>
      <stop offset="1" stop-color="#F2F1EC"/>
    </linearGradient>
    <radialGradient id="a" cx="24%" cy="22%" r="70%">
      <stop offset="0" stop-color="#F5E93A" stop-opacity=".45"/>
      <stop offset="1" stop-color="#F5E93A" stop-opacity="0"/>
    </radialGradient>
  </defs>
  <rect width="1200" height="750" fill="url(#bg)"/>
  <rect width="1200" height="750" fill="url(#a)"/>
  <g fill="none" stroke="#0E0F13" stroke-opacity=".12" stroke-width="2">
    <rect x="90" y="140" width="1020" height="520" rx="26"/>
    <rect x="140" y="190" width="360" height="90" rx="18"/>
    <rect x="140" y="300" width="460" height="90" rx="18"/>
    <rect x="140" y="410" width="560" height="90" rx="18"/>
    <rect x="140" y="520" width="420" height="90" rx="18"/>
    <path d="M560 245h500" />
    <path d="M560 355h500" />
    <path d="M560 465h500" />
    <path d="M560 575h500" />
  </g>
  <g fill="#0E0F13">
    <text x="90" y="96" font-family="ui-serif, Georgia, serif" font-size="44" font-weight="700">KYC Flow</text>
    <text x="90" y="122" font-family="ui-sans-serif, system-ui" font-size="16" opacity=".72">Growth Design · Conversion +8.5%</text>
  </g>
  <g>
    <rect x="90" y="670" width="320" height="54" rx="999" fill="#0E0F13"/>
    <text x="120" y="705" font-family="ui-sans-serif, system-ui" font-size="16" fill="#fff">Micro-interactions & speed</text>
  </g>
</svg>

