<svg xmlns="http://www.w3.org/2000/svg" width="1200" height="750" viewBox="0 0 1200 750">
  <defs>
    <linearGradient id="bg" x1="0" y1="0" x2="1" y2="1">
      <stop offset="0" stop-color="#FFFFFF"/>
      <stop offset="1" stop-color="#F2F1EC"/>
    </linearGradient>
    <radialGradient id="a" cx="28%" cy="18%" r="70%">
      <stop offset="0" stop-color="#2B6CF6" stop-opacity=".22"/>
      <stop offset="1" stop-color="#2B6CF6" stop-opacity="0"/>
    </radialGradient>
    <radialGradient id="b" cx="85%" cy="20%" r="70%">
      <stop offset="0" stop-color="#F5E93A" stop-opacity=".55"/>
      <stop offset="1" stop-color="#F5E93A" stop-opacity="0"/>
    </radialGradient>
  </defs>
  <rect width="1200" height="750" fill="url(#bg)"/>
  <rect width="1200" height="750" fill="url(#a)"/>
  <rect width="1200" height="750" fill="url(#b)"/>
  <g fill="none" stroke="#0E0F13" stroke-opacity=".12" stroke-width="2">
    <rect x="90" y="140" width="1020" height="520" rx="26"/>
    <rect x="130" y="190" width="240" height="120" rx="18"/>
    <rect x="400" y="190" width="240" height="120" rx="18"/>
    <rect x="670" y="190" width="240" height="120" rx="18"/>
    <rect x="130" y="340" width="780" height="92" rx="18"/>
    <rect x="130" y="460" width="360" height="170" rx="18"/>
    <rect x="520" y="460" width="390" height="170" rx="18"/>
    <rect x="940" y="190" width="140" height="440" rx="18"/>
  </g>
  <g fill="#0E0F13">
    <text x="90" y="96" font-family="ui-serif, Georgia, serif" font-size="44" font-weight="700">Nebula UI</text>
    <text x="90" y="122" font-family="ui-sans-serif, system-ui" font-size="16" opacity=".72">Enterprise Design System · 0→1</text>
  </g>
  <g>
    <rect x="90" y="670" width="280" height="54" rx="999" fill="#0E0F13"/>
    <text x="120" y="705" font-family="ui-sans-serif, system-ui" font-size="16" fill="#fff">Components & tokens</text>
  </g>
</svg>

